# xmcd
#
# Track frame offsets:
#	150
#	15018
#	28009
#	46740
#	64688
#	85148
#	103258
#	118333
#	134238
#	148938
#	168888
#	189593
#	208203
#	226485
#	245398
#	267050
#
# Disc length: 3833 seconds
#
# Revision: 7
# Processed by: cddbd v1.5.2PL0 Copyright (c) Steve Scherf et al.
# Submitted via: dBpowerAMP V4.0
#
DISCID=e30ef710
DTITLE=Acda en de Munnik - Op Voorraad Live
DYEAR=1999
DGENRE=Nederlandstalig
TTITLE0=Naar huis
TTITLE1=Drie keer vallen
TTITLE2=Het geeft niet
TTITLE3=Als je bij me weggaat
TTITLE4=Niet of nooit geweest
TTITLE5=Mis ik jou
TTITLE6=Ik weet het beter
TTITLE7=Vondelpark vannacht
TTITLE8=Bij haar zijn
TTITLE9=Het regent zonnestralen
TTITLE10=Lopen tot de zon komt
TTITLE11=Slaap zacht, Elisabeth
TTITLE12=De kapitein
TTITLE13=Niemand sterft
TTITLE14=Wennen aan jou
TTITLE15=Als het vuur gedoofd is
EXTD=
EXTT0=
EXTT1=
EXTT2=
EXTT3=
EXTT4=
EXTT5=
EXTT6=
EXTT7=
EXTT8=
EXTT9=
EXTT10=
EXTT11=
EXTT12=
EXTT13=
EXTT14=
EXTT15=
PLAYORDER=
